<svg width="105" height="107" fill="none" xmlns="http://www.w3.org/2000/svg"><path d="M31.503 95.505v3.5h-3.5v-3.5h3.5zm-10.5 0v3.5h3.5v-3.5h-3.5zM.218 97.627a9.85 9.85 0 01-.219-2.122V64.002h3.5v31.503a6.994 6.994 0 007.001 7.001h26.253V90.255H15.752c-.963 0-1.75-.788-1.75-1.75V67.501h3.5v19.252h.59l9.473-17.283-4.047-4.463-12.01-13.214c-4.53.372-8.008 4.157-8.008 8.708H0c0-6.082 4.485-11.245 10.501-12.12V17.097L7.438 9.44a6.278 6.278 0 011.357-6.629A6.182 6.182 0 0113.148.995h29.71a6.153 6.153 0 016.147 6.148 6.19 6.19 0 01-.438 2.275l-2.406 6.016 4.375.875a4.63 4.63 0 013.632 5.448 4.639 4.639 0 01-4.55 3.719c-.744 0-1.51-.022-2.254-.044l3.26 8.16c.35.897-.088 1.926-.985 2.276a1.675 1.675 0 01-.656.131h-5.25v8.75a7.054 7.054 0 01-.941 3.501h.219a15.767 15.767 0 0113.323 7.351l4.813 7.657-2.953 1.86-4.814-7.657a12.333 12.333 0 00-2.975-3.238L32.597 86.754h10.807l-.393-.328a4.927 4.927 0 01-.547-6.957 4.993 4.993 0 013.04-1.684V67.501h3.501v4.77l7.526 12.338 3.172 2.538 4.266-29.119a5.342 5.342 0 015.294-4.506h4.42c1.093-2.035 3.325-3.5 5.622-3.5h2.188l.11-.438c.677-2.713 3.39-4.813 6.125-4.813a4.373 4.373 0 014.528 4.2c.022.35-.022.7-.087 1.05h1.313a4.52 4.52 0 013.61 1.685c.415.525.7 1.16.809 1.816h1.75c1.553 0 3.041.678 4.069 1.86a5.204 5.204 0 011.225 4.156l-2.056 14.089c1.597 1.094 2.406 3.019 2.012 4.922l-2.209 11.026c-.503 2.45-2.647 4.223-5.141 4.223h-5.645a4.8 4.8 0 01-4.813-4.813c0-.307.022-.635.088-.941l2.21-11.026c.503-2.45 2.647-4.223 5.14-4.223h4.923l2.013-13.76a1.707 1.707 0 00-.394-1.357c-.35-.415-.875-.634-1.422-.634h-2.166l-1.006 3.938a1.76 1.76 0 01-1.707 1.312H73.508c-.963 0-1.75-.787-1.75-1.75 0-.153.021-.284.043-.437l.788-3.063h-3.347c-.898-.022-1.663.634-1.816 1.51l-6.148 42.004c-.065.481.066.962.394 1.334.35.416.853.635 1.378.657h30.475c.897.021 1.663-.635 1.816-1.51l.59-4.004 3.457.504-.59 4.003a5.342 5.342 0 01-5.295 4.507H10.501c-4.988-.044-9.276-3.544-10.282-8.423zm100.985-20.893a1.274 1.274 0 00-1.006-.48h-5.644c-.832 0-1.554.59-1.707 1.4l-2.21 11.025c-.153.7.329 1.4 1.029 1.554.087.022.175.022.262.022h5.645c.83 0 1.553-.591 1.706-1.4l2.21-11.027c.065-.394-.022-.787-.285-1.094zM75.761 58.751H93.46l1.006-3.938c.11-.328.066-.7-.11-.984a1.033 1.033 0 00-.853-.328H89.96c-.962 0-1.75-.788-1.75-1.75 0-.154.022-.285.044-.438l.437-1.75c.11-.328.066-.7-.109-.985a1.033 1.033 0 00-.853-.328c-1.16 0-2.45 1.029-2.735 2.188l-.437 1.75a1.76 1.76 0 01-1.707 1.313h-3.544c-1.16 0-2.45 1.028-2.735 2.188l-.81 3.062zM42.573 14.975l1.4-3.522.678-1.729H42.88a2.633 2.633 0 00-2.625 2.626 2.63 2.63 0 002.32 2.625zm-29.14.022h23.911a6 6 0 01-.525-1.75H17.502v-3.5h19.842a6.11 6.11 0 015.535-3.501h2.473a2.646 2.646 0 00-2.494-1.75h-29.71a2.642 2.642 0 00-2.647 2.647c0 .35.066.678.197.984l2.735 6.87zM14 48.25h22.753a3.51 3.51 0 003.5-3.5v-3.5h-5.25v-3.5h5.25v-3.501c0-.963.788-1.75 1.75-1.75h4.42l-2.954-7.373a53.42 53.42 0 01-5.229-.919 3.488 3.488 0 01-1.925 4.55 3.488 3.488 0 01-4.55-1.925 3.486 3.486 0 011.203-4.156 49.638 49.638 0 01-7.482-3.326l-1.072 3.238a1.74 1.74 0 01-1.663 1.203h-1.684a2.83 2.83 0 00-2.735 2.123 2.922 2.922 0 001.466 3.194l.219.109a1.735 1.735 0 01.787 2.34 1.752 1.752 0 01-.328.46L14 38.471v9.78zm22.753 3.5h-2.232l-1.203 3.632.46 2.8 3.522-6.431h-.547zm-12.339 3.895l-2.603-3.894H16.21l7.482 8.225.722-4.331zm4.944 10.566l1.685-3.062-1.27-7.614a1.774 1.774 0 01.067-.831l.984-2.953h-4.813l1.685 2.537c.24.372.35.81.262 1.27l-1.29 7.744 2.69 2.91zm26.384 22.534l-6.738 2.69v11.071h9.057a5.396 5.396 0 01-.262-2.494l1.29-8.751-3.347-2.516zm-10.457-4.988l4.288 3.675 3.281-1.312-5.731-4.573a1.233 1.233 0 00-.438-.24c-.744-.263-1.575.153-1.838.897a1.47 1.47 0 00.438 1.553z" fill="#000"/></svg>