<svg width="107" height="98" fill="none" xmlns="http://www.w3.org/2000/svg"><g clip-path="url(#clip0)" fill="#000"><path d="M37.45 69.581h-10.7c-.98 0-1.783.8-1.783 1.776v10.657c0 .977.802 1.777 1.783 1.777h10.7c.981 0 1.783-.8 1.783-1.776V71.358c0-.977-.802-1.777-1.783-1.777zm-1.783 10.657h-7.134v-7.104h7.134v7.104zm26.75-30.194H44.583c-1.961 0-3.566 1.598-3.566 3.552V60.7c0 1.953 1.605 3.552 3.566 3.552h17.834c1.961 0 3.566-1.599 3.566-3.553v-7.104c0-1.954-1.605-3.552-3.566-3.552zm0 5.328h-7.134v-1.776h7.134v1.776zm-10.7-1.776v1.776h-7.134v-1.776h7.134zm-7.134 5.328h7.134V60.7h-7.134v-1.776zm10.7 1.776v-1.776h7.134V60.7h-7.134z"/><path d="M97.927 85.68a8.917 8.917 0 00-3.79-5.729c-1.983-1.332-4.413-1.798-6.754-1.332V47.225l3.188 3.175c2.185 2.176 5.707 2.176 7.869 0s2.185-5.684 0-7.837l-4.971-4.951h6.398a5.327 5.327 0 005.35-5.329V10.97a5.327 5.327 0 00-5.35-5.328H61.369l-4.102-4.086a5.384 5.384 0 00-7.557 0L8.538 42.563c-2.185 2.175-2.185 5.683 0 7.837 2.184 2.154 5.706 2.176 7.869 0l3.21-3.175v37.233a7.111 7.111 0 00-7.87-1.998c-2.786 1.043-4.636 3.685-4.614 6.66C3.188 89.12 0 92.295 0 96.225c0 .977.802 1.776 1.783 1.776h103.434c.98 0 1.783-.799 1.783-1.776 0-5.262-3.856-9.724-9.073-10.546zm-15.916-3.598c0-.022.022-.044.022-.066V71.359c0-.977-.802-1.776-1.783-1.776h-10.7c-.98 0-1.783.799-1.783 1.776v10.657c0 .977.802 1.776 1.783 1.776h10.7c.334 0 .647-.111.914-.289a8.546 8.546 0 00-.914 3.841v.178a8.878 8.878 0 00-6.933 6.927h-7.334V67.806c0-.976-.802-1.776-1.783-1.776H42.8c-.98 0-1.783.8-1.783 1.776V94.45H30.16a10.646 10.646 0 00-6.978-8.26V44.717h60.634v35.568a8.65 8.65 0 00-1.806 1.798zm-3.544-8.947v7.105h-7.134v-7.105h7.134zm23.183-62.166v21.314c0 .977-.803 1.776-1.783 1.776H53.5c-.98 0-1.783-.799-1.783-1.776V10.97c0-.977.802-1.776 1.783-1.776h46.367c.98 0 1.783.8 1.783 1.776zm-53.5 7.837v13.477a5.326 5.326 0 005.35 5.329h24.231l3.567 3.552H25.702L48.15 18.806zM44.583 94.45V69.583h17.834v24.866H44.583z"/><path d="M49.933 74.91h-3.566v3.552h1.783v3.553h-1.783v3.552h3.566c.981 0 1.784-.8 1.784-1.776v-7.105c0-.977-.803-1.776-1.784-1.776zm7.133-44.404h5.35c2.118 0 4.035-1.222 4.882-3.153a5.304 5.304 0 00-.936-5.728 5.304 5.304 0 00.936-5.728c-.847-1.932-2.764-3.153-4.881-3.153h-5.35c-.981 0-1.784.8-1.784 1.776v14.21c0 .976.803 1.776 1.783 1.776zm5.35-3.553H58.85v-3.552h3.567c.98 0 1.783.8 1.783 1.776 0 .977-.803 1.776-1.783 1.776zM58.85 16.296h3.567c.98 0 1.783.8 1.783 1.776 0 .977-.803 1.777-1.783 1.777H58.85v-3.553zm16.05 14.21h1.783a5.327 5.327 0 005.35-5.329V12.744h-3.567v12.433c0 .977-.802 1.776-1.783 1.776H74.9a1.785 1.785 0 01-1.784-1.776V12.744H69.55v12.433c0 2.93 2.385 5.329 5.35 5.329zm14.266 0h3.567v-8.393l5.105-8.459-3.054-1.82-3.834 6.35-3.812-6.35-3.054 1.82 5.082 8.46v8.392z"/></g><defs><clipPath id="clip0"><path fill="#fff" d="M0 0h107v98H0z"/></clipPath></defs></svg>