<svg width="111" height="111" fill="none" xmlns="http://www.w3.org/2000/svg"><path d="M63.332 69.682c0 10.118 8.204 18.34 18.34 18.34 10.117 0 18.34-8.203 18.34-18.34 0-10.117-8.204-18.34-18.34-18.34-10.117 0-18.321 8.204-18.34 18.34zm7.862 36.661H92.15v3.676H71.194v-3.676zm-7.862-7.333h36.66v3.676h-36.66v-3.675zm-40.336 0h3.675v3.676h-3.675v-3.675zm-10.99 3.657h3.676v3.676h-3.676v-3.676z" fill="#000"/><path d="M23.184 88.686a139.003 139.003 0 0017.64-54.262l17.05 16.957c.342.34.797.53 1.29.53.094 0 .208 0 .302-.019a1.812 1.812 0 001.346-.985 17.924 17.924 0 00-3.354-20.69l-1.497-1.496h12.865a1.84 1.84 0 001.838-1.838 2.1 2.1 0 00-.095-.587c-2.444-7.313-9.284-12.258-16.995-12.258h-2.387l9.15-9.208a1.83 1.83 0 000-2.596 2.157 2.157 0 00-.473-.34C52.968-1.556 44.613-.21 39.175 5.246L37.432 6.99a18.448 18.448 0 00-1.592 1.838 17.913 17.913 0 00-1.572-1.838l-1.743-1.743a17.959 17.959 0 00-20.708-3.354 1.83 1.83 0 00-.815 2.463c.095.17.209.341.341.474l9.17 9.208h-2.425c-7.711 0-14.57 4.926-16.995 12.258-.322.966.19 1.99 1.156 2.312.19.056.379.094.587.094H15.72L14.223 30.2c-5.456 5.456-6.82 13.793-3.354 20.69a1.812 1.812 0 001.649 1.003c.492 0 .947-.19 1.288-.53L29.683 35.58A99.52 99.52 0 0110.51 84.044a67.135 67.135 0 00-7.484-1.516l-1.137-.114-.36 3.657 1.061.114c1.838.265 3.657.625 5.476 1.06-.36.455-.74.93-1.118 1.384l2.785 2.311a103.18 103.18 0 0023.986-59.377l2.103-2.103 1.572 1.573a133.882 133.882 0 01-23.228 65.08l2.994 2.103a122.291 122.291 0 004.149-6.366 65.31 65.31 0 0122.186 17.373l2.842-2.33a67.702 67.702 0 00-12.183-11.557H111V91.66H28.736c-1.8-1.08-3.657-2.046-5.552-2.974zm35.297-41.871L39.118 27.547a14.152 14.152 0 0114.001 3.505l1.743 1.743c3.657 3.675 5.06 9.037 3.62 14.02zm7.56-21.77H50.865a17.902 17.902 0 00-11.349-1.364 14.242 14.242 0 0111.595-5.986h2.482c5.153 0 9.928 2.822 12.448 7.35zM40.009 9.606l1.743-1.744a14.216 14.216 0 0114.02-3.618L44.897 15.156a17.941 17.941 0 00-8.659 6.801 13.9 13.9 0 013.77-12.353zM29.91 7.841l1.743 1.744a13.792 13.792 0 012.104 2.785 17.367 17.367 0 00-1.403 6.1c-1.629-1.44-3.543-2.557-5.589-3.315L15.91 4.224c4.964-1.44 10.345-.038 14.001 3.619zm-11.822 9.871h2.482c4.604 0 8.924 2.217 11.595 5.968a17.887 17.887 0 00-11.349 1.365H5.64a14.18 14.18 0 0112.448-7.333zm-4.907 29.102A14.225 14.225 0 0116.8 32.813l1.743-1.743a13.969 13.969 0 019.946-4.092c1.383 0 2.748.19 4.055.587L13.18 46.815z" fill="#000"/></svg>