<svg width="100" height="100" fill="none" xmlns="http://www.w3.org/2000/svg"><g clip-path="url(#clip0)" fill="#000"><path d="M93.333 91.667H90V10H45V6.667h48.333v85z"/><path d="M100 85h-3.334V3.333h-45V0H100v85z"/><path d="M37.646 13.333l-20.98 20.98v12.354H20v-10h20v-20h43.333v80H20v-3.334h-3.334V100h70V13.333h-49.02z"/><path d="M60 91.667V63.958a4.471 4.471 0 004.48-.104 4.497 4.497 0 002.187-3.896c-.021-1.625-.896-3.145-2.313-3.937l-31.02-16.23L2.228 56.064A4.564 4.564 0 000 59.979V60a4.5 4.5 0 002.292 3.938 4.58 4.58 0 002.27.604 4.14 4.14 0 002.105-.563v27.688H60zM3.937 61.02a1.183 1.183 0 01-.604-1.042v-.02c0-.396.188-.771.521-1l29.48-15.417L62.75 58.938c.375.229.604.625.583 1.062 0 .438-.229.833-.604 1.042A1.251 1.251 0 0161.438 61L33.332 46.458 5.146 61.021c-.375.23-.833.23-1.208 0zM10 88.333V62.271l23.333-12.063L56.667 62.25v26.083h-30V65H13.333v23.333H10zm6.667 0v-20h6.666v20h-6.666z"/><path d="M33.334 63.333c2.77 0 5-2.229 5-5 0-2.77-2.23-5-5-5-2.771 0-5 2.23-5 5 0 2.771 2.229 5 5 5zM30 81.667h23.333V68.333H30v13.334zm16.666-55H50V30h-3.334v-3.333zm6.668 0h23.333V30H53.333v-3.333zm-6.668 6.666H50v3.334h-3.334v-3.334zm6.668 0h23.333v3.334H53.333v-3.334zm-6.668 10h26.667v13.334H70V60h6.666V40h-30v3.333zm23.334 20h6.667v3.334H70v-3.334z"/></g><defs><clipPath id="clip0"><path fill="#fff" d="M0 0h100v100H0z"/></clipPath></defs></svg>