<svg width="104" height="104" fill="none" xmlns="http://www.w3.org/2000/svg"><g clip-path="url(#clip0)" fill="#000"><path d="M102.267 57.2h-4.399l-8.84-10.313 7.54-7.54a1.74 1.74 0 000-2.449l-5.2-5.2a1.74 1.74 0 00-2.448 0L77.133 43.485l-.866.195V0H6.933v3.467H0V104h72.8v-6.933h3.467V77.675a5.076 5.076 0 006.24-2.34l2.773 3.705c.325.433.845.693 1.387.693h6.608l8.363 3.337a1.734 1.734 0 002.384-1.603V58.933c-.022-.953-.802-1.733-1.755-1.733zM90.133 35.382l2.752 2.751-2.752 2.752-2.751-2.752 2.751-2.751zM65.152 55.467H62.79l1.105-5.482 8.688-1.928-7.431 7.41zm4.181 45.066H3.467v-93.6h3.466v90.134h62.4v3.466zM72.8 93.6H10.4V3.467h62.4v40.971l-10.768 2.405a1.718 1.718 0 00-1.322 1.344l-1.495 7.518c-2.73.78-4.312 3.64-3.532 6.37a5.088 5.088 0 001.885 2.708l-3.315 3.315-.26.325-5.2 8.667a1.739 1.739 0 00-.043 1.69l-1.43 1.43a1.72 1.72 0 00-.043 2.448 1.72 1.72 0 002.448.044l.043-.044 1.452-1.451c.238.13.52.216.802.216.325 0 .628-.086.888-.238l8.667-5.2c.108-.087.238-.173.325-.26l3.965-3.965v1.018c0 2.882 2.318 5.2 5.2 5.2.585 0 1.17-.108 1.733-.325V93.6zM57.872 74.187l-5.157 3.098 3.098-5.157 2.059 2.059zM72.8 72.8c0 .953-.78 1.733-1.733 1.733-.954 0-1.734-.78-1.734-1.733v-4.485l2.449-2.448H72.8V72.8zm6.933 0c0 .953-.78 1.733-1.733 1.733-.953 0-1.733-.78-1.733-1.733v-5.785l3.466 4.615v1.17zm20.8 6.11l-6.283-2.513a1.657 1.657 0 00-.65-.13h-6.067l-9.88-13.174a1.745 1.745 0 00-1.386-.693h-15.6c-.954 0-1.734-.78-1.734-1.733 0-.954.78-1.734 1.734-1.734h15.6c.455 0 .91-.173 1.235-.498l9.078-9.078 9.187 10.703a1.7 1.7 0 001.321.607h3.467V78.91h-.022z"/><path d="M65.867 84.933h3.466V88.4h-3.466v-3.467zm-6.933 0H62.4V88.4h-3.466v-3.467zm10.4-77.397H13.565v10.55h55.769V7.537zM13.867 20.8h31.2v3.467h-31.2V20.8zm-.302 6.33h40.696v3.015H13.565V27.13zm.302 19.67h10.4V36.4h-10.4v10.4zm3.466-6.933H20.8v3.467h-3.467v-3.467zm11.305-3.693h33.16v3.014h-33.16v-3.014zM13.867 60.667h10.4v-10.4h-10.4v10.4zM27.733 57.2h22.534v3.467H27.733V57.2zM13.867 88.4h10.4V78h-10.4v10.4zM27.733 78h15.6v3.467h-15.6V78zm0 6.933h26V88.4h-26v-3.467zm0-20.8H41.6V67.6H27.733v-3.467zm0 6.934H46.8v3.466H27.733v-3.466zm-10.898 2.968l2.232-2.253 2.231 2.231 2.449-2.448-2.232-2.232 2.232-2.231-2.449-2.449-2.231 2.232-2.232-2.232-2.448 2.449 2.231 2.231-2.231 2.232 2.448 2.47z"/></g><defs><clipPath id="clip0"><path fill="#fff" d="M0 0h104v104H0z"/></clipPath></defs></svg>