<svg width="111" height="111" viewBox="0 0 111 111" fill="none" xmlns="http://www.w3.org/2000/svg">
<path d="M63.332 69.6824C63.332 79.7996 71.5357 88.0222 81.6719 88.0222C91.7891 88.0222 100.012 79.8186 100.012 69.6824C100.012 59.5651 91.8081 51.3425 81.6719 51.3425C71.5546 51.3425 63.351 59.5462 63.332 69.6824Z" fill="black"/>
<path d="M71.1943 106.343H92.1488V110.019H71.1943V106.343Z" fill="black"/>
<path d="M63.332 99.0107H99.9928V102.686H63.332V99.0107Z" fill="black"/>
<path d="M22.9956 99.0107H26.6712V102.686H22.9956V99.0107Z" fill="black"/>
<path d="M12.0063 102.667H15.6819V106.343H12.0063V102.667Z" fill="black"/>
<path d="M23.1845 88.6856C32.7523 72.013 38.7582 53.5406 40.8234 34.4239L57.8749 51.3807C58.2159 51.7217 58.6706 51.9112 59.1632 51.9112C59.2579 51.9112 59.3716 51.9112 59.4664 51.8922C60.0537 51.7975 60.5463 51.4375 60.8115 50.907C64.2597 44.0107 62.9146 35.6744 57.4581 30.2179L55.9613 28.7211H68.8257C69.8299 28.7211 70.6635 27.9064 70.6635 26.8834C70.6635 26.6939 70.6256 26.4855 70.5688 26.296C68.1247 18.9828 61.2852 14.0379 53.5741 14.0379H51.1869L60.3379 4.83006C61.0578 4.11011 61.0578 2.9544 60.3379 2.23444C60.2053 2.10182 60.0347 1.98814 59.8642 1.89341C52.9678 -1.55478 44.6126 -0.209607 39.175 5.24688L37.432 6.98992C36.8636 7.55831 36.3331 8.18353 35.8405 8.8277C35.3669 8.18353 34.8364 7.57725 34.268 6.98992L32.525 5.24688C27.0495 -0.209607 18.7132 -1.55478 11.8168 1.89341C10.9074 2.34812 10.5474 3.447 11.0022 4.35641C11.0969 4.52693 11.2106 4.69744 11.3432 4.83006L20.5131 14.0379H18.088C10.3769 14.0379 3.51844 18.9639 1.09333 26.296C0.771247 27.2623 1.28279 28.2854 2.24904 28.6075C2.43851 28.6643 2.62797 28.7022 2.83637 28.7022H15.7197L14.223 30.1989C8.76651 35.6554 7.40239 43.9917 10.8695 50.8881C11.1348 51.4186 11.6274 51.7786 12.2147 51.8733C12.3094 51.8922 12.4042 51.8922 12.5178 51.8922C13.0104 51.8922 13.4652 51.7028 13.8062 51.3618L29.683 35.5796C27.7126 53.1616 21.0815 69.8911 10.5096 84.0438C8.04656 83.3997 5.54567 82.8881 3.02584 82.5281L1.88907 82.4145L1.52909 86.0711L2.59007 86.1847C4.42785 86.45 6.24668 86.81 8.06551 87.2457C7.70553 87.7004 7.32661 88.1741 6.94768 88.6288L9.73277 90.9402C23.8287 74.1918 32.2218 53.389 33.7186 31.5631L35.8216 29.46L37.3941 31.0326C35.4806 54.3931 27.4663 76.8253 14.1662 96.1125L17.1596 98.2155C18.5996 96.1504 19.9826 94.0284 21.3088 91.8496C29.8914 95.9609 37.451 101.891 43.4948 109.223L46.3367 106.893C42.7748 102.554 38.6824 98.6702 34.1543 95.3357H111V91.6602H28.7357C26.9358 90.5802 25.0791 89.614 23.1845 88.6856ZM58.4812 46.8147L39.1182 27.5465C44.0821 26.0687 49.4439 27.4138 53.1194 31.0515L54.8624 32.7946C58.519 36.4701 59.9211 41.8319 58.4812 46.8147ZM66.0407 25.0456H50.8648C47.3219 23.3594 43.3432 22.8857 39.5161 23.6815C42.1875 19.9301 46.5072 17.6945 51.1111 17.6945H53.5931C58.7464 17.6945 63.5208 20.5175 66.0407 25.0456ZM40.0087 9.60449L41.7517 7.86144C45.4083 4.18589 50.789 2.80283 55.7719 4.24273L44.8968 15.1557C41.3728 16.463 38.3414 18.8313 36.2384 21.9574C35.3858 17.4671 36.8068 12.8443 40.0087 9.60449ZM29.9104 7.8425L31.6534 9.58554C32.4681 10.4192 33.1691 11.3475 33.7565 12.3706C32.9228 14.3031 32.4492 16.3683 32.3544 18.4713C30.7251 17.0314 28.8115 15.9135 26.7653 15.1557L15.9092 4.22379C20.8731 2.78388 26.2538 4.1859 29.9104 7.8425ZM18.088 17.7134H20.57C25.1739 17.7134 29.4936 19.9301 32.165 23.6815C28.3379 22.8857 24.3402 23.3594 20.8162 25.0456H5.6404C8.14129 20.5175 12.9157 17.6945 18.088 17.7134ZM13.181 46.8147C11.7411 41.8319 13.1431 36.4701 16.7997 32.8135L18.5427 31.0705C21.1762 28.4369 24.757 26.9591 28.4894 26.9781C29.8725 26.9781 31.2366 27.1675 32.5439 27.5654L13.181 46.8147Z" fill="black"/>
</svg>
