<svg width="107" height="98" viewBox="0 0 107 98" fill="none" xmlns="http://www.w3.org/2000/svg">
<g clip-path="url(#clip0)">
<path d="M37.4501 69.5813H26.7501C25.7693 69.5813 24.9668 70.3806 24.9668 71.3575V82.0145C24.9668 82.9914 25.7693 83.7906 26.7501 83.7906H37.4501C38.431 83.7906 39.2335 82.9914 39.2335 82.0145V71.3575C39.2335 70.3806 38.431 69.5813 37.4501 69.5813ZM35.6668 80.2383H28.5335V73.1336H35.6668V80.2383Z" fill="black"/>
<path d="M62.4166 50.0435H44.5833C42.6216 50.0435 41.0166 51.642 41.0166 53.5958V60.7005C41.0166 62.6542 42.6216 64.2528 44.5833 64.2528H62.4166C64.3783 64.2528 65.9833 62.6542 65.9833 60.7005V53.5958C65.9833 51.642 64.3783 50.0435 62.4166 50.0435ZM62.4166 55.372H55.2833V53.5958H62.4166V55.372ZM51.7166 53.5958V55.372H44.5833V53.5958H51.7166ZM44.5833 58.9243H51.7166V60.7005H44.5833V58.9243ZM55.2833 60.7005V58.9243H62.4166V60.7005H55.2833Z" fill="black"/>
<path d="M97.9273 85.6791C97.4815 83.3479 96.1217 81.2831 94.1377 79.951C92.1537 78.6189 89.724 78.1526 87.3833 78.6189V47.2251L90.571 50.4C92.7556 52.5758 96.2777 52.5758 98.44 50.4C100.602 48.2242 100.625 44.7163 98.44 42.5627L93.469 37.6116H99.8667C102.831 37.6116 105.217 35.236 105.217 32.2831V10.9691C105.217 8.01624 102.831 5.64061 99.8667 5.64061H61.369L57.2673 1.55543C55.1719 -0.509362 51.8058 -0.509362 49.7104 1.55543L8.53771 42.5627C6.35312 44.7385 6.35312 48.2464 8.53771 50.4C10.7223 52.5536 14.2444 52.5758 16.4067 50.4L19.6167 47.2251V84.458C17.6773 82.2156 14.5342 81.4163 11.7477 82.4598C8.96125 83.5033 7.11104 86.1454 7.13333 89.1204C3.18771 89.1204 0 92.2953 0 96.2251C0 97.202 0.8025 98.0013 1.78333 98.0013H105.217C106.197 98.0013 107 97.202 107 96.2251C107 90.9632 103.144 86.5006 97.9273 85.6791ZM82.011 82.0824C82.011 82.0602 82.0333 82.038 82.0333 82.0158V71.3588C82.0333 70.3819 81.2308 69.5826 80.25 69.5826H69.55C68.5692 69.5826 67.7667 70.3819 67.7667 71.3588V82.0158C67.7667 82.9927 68.5692 83.7919 69.55 83.7919H80.25C80.5844 83.7919 80.8965 83.6809 81.164 83.5033C80.5621 84.7022 80.25 86.0122 80.25 87.3443V87.5219C76.7502 88.2324 74.0306 90.9632 73.3173 94.4489H65.9833V67.8064C65.9833 66.8296 65.1808 66.0303 64.2 66.0303H42.8C41.8192 66.0303 41.0167 66.8296 41.0167 67.8064V94.4489H30.1606C29.5142 90.6302 26.8392 87.4775 23.1833 86.1898V44.7163H83.8167V80.284C83.1256 80.7947 82.5238 81.3941 82.011 82.0824ZM78.4667 73.1349V80.2396H71.3333V73.1349H78.4667ZM101.65 10.9691V32.2831C101.65 33.26 100.847 34.0593 99.8667 34.0593H53.5C52.5192 34.0593 51.7167 33.26 51.7167 32.2831V10.9691C51.7167 9.99222 52.5192 9.19295 53.5 9.19295H99.8667C100.847 9.19295 101.65 9.99222 101.65 10.9691ZM48.15 18.8064V32.2831C48.15 35.236 50.5352 37.6116 53.5 37.6116H77.731L81.2977 41.1639H25.7023L48.15 18.8064ZM44.5833 94.4489V69.5826H62.4167V94.4489H44.5833Z" fill="black"/>
<path d="M49.9334 74.9099H46.3667V78.4622H48.15V82.0146H46.3667V85.5669H49.9334C50.9142 85.5669 51.7167 84.7676 51.7167 83.7907V76.6861C51.7167 75.7092 50.9142 74.9099 49.9334 74.9099Z" fill="black"/>
<path d="M57.0665 30.5056H62.4166C64.5343 30.5056 66.4514 29.2844 67.2984 27.3529C68.1455 25.4213 67.7889 23.1789 66.3622 21.6247C67.7889 20.0706 68.1455 17.8282 67.2984 15.8966C66.4514 13.965 64.5343 12.7439 62.4166 12.7439H57.0665C56.0857 12.7439 55.2832 13.5432 55.2832 14.5201V28.7294C55.2832 29.7063 56.0857 30.5056 57.0665 30.5056ZM62.4166 26.9532H58.8499V23.4009H62.4166C63.3974 23.4009 64.1999 24.2002 64.1999 25.1771C64.1999 26.154 63.3974 26.9532 62.4166 26.9532ZM58.8499 16.2962H62.4166C63.3974 16.2962 64.1999 17.0955 64.1999 18.0724C64.1999 19.0493 63.3974 19.8486 62.4166 19.8486H58.8499V16.2962Z" fill="black"/>
<path d="M74.8998 30.5056H76.6831C79.6479 30.5056 82.0331 28.1299 82.0331 25.1771V12.7439H78.4665V25.1771C78.4665 26.154 77.664 26.9532 76.6831 26.9532H74.8998C73.919 26.9532 73.1165 26.154 73.1165 25.1771V12.7439H69.5498V25.1771C69.5498 28.1077 71.935 30.5056 74.8998 30.5056Z" fill="black"/>
<path d="M89.1665 30.5057H92.7331V22.1133L97.8379 13.6543L94.784 11.8337L90.9498 18.1835L87.1379 11.8337L84.084 13.6543L89.1665 22.1133V30.5057Z" fill="black"/>
</g>
<defs>
<clipPath id="clip0">
<rect width="107" height="98" fill="white"/>
</clipPath>
</defs>
</svg>
