<svg width="103" height="89" viewBox="0 0 103 89" fill="none" xmlns="http://www.w3.org/2000/svg">
<path d="M34.3334 39.3655C34.3334 36.4773 31.3078 34.2309 27.4668 34.2309C25.3638 34.2309 24.0334 33.2254 24.0334 32.5194C24.0334 31.8133 25.3638 30.8078 27.4668 30.8078C29.5697 30.8078 30.9001 31.8133 30.9001 32.5194C30.9001 33.4607 31.6726 34.2309 32.6168 34.2309C33.5609 34.2309 34.3334 33.4607 34.3334 32.5194C34.3334 30.0804 32.1661 28.1121 29.1834 27.5559V25.6732C29.1834 24.7319 28.4109 23.9617 27.4668 23.9617C26.5226 23.9617 25.7501 24.7319 25.7501 25.6732V27.5559C22.7674 28.1121 20.6001 30.0804 20.6001 32.5194C20.6001 35.4076 23.6257 37.654 27.4668 37.654C29.5697 37.654 30.9001 38.6595 30.9001 39.3655C30.9001 40.0715 29.5697 41.077 27.4668 41.077C25.3638 41.077 24.0334 40.0715 24.0334 39.3655C24.0334 38.4242 23.2609 37.654 22.3168 37.654C21.3726 37.654 20.6001 38.4242 20.6001 39.3655C20.6001 41.8045 22.7674 43.7727 25.7501 44.329V46.2117C25.7501 47.153 26.5226 47.9232 27.4668 47.9232C28.4109 47.9232 29.1834 47.153 29.1834 46.2117V44.329C32.1661 43.7727 34.3334 41.8045 34.3334 39.3655Z" fill="black"/>
<path d="M97.85 0H15.45C12.6175 0 10.3 2.31058 10.3 5.13462V13.6923H5.15C2.3175 13.6923 0 16.0029 0 18.8269V83.8654C0 86.6894 2.3175 89 5.15 89H87.55C90.3825 89 92.7 86.6894 92.7 83.8654V78.7308H97.85C100.683 78.7308 103 76.4202 103 73.5962V5.13462C103 2.31058 100.683 0 97.85 0ZM3.43333 18.8269C3.43333 17.8856 4.20583 17.1154 5.15 17.1154H10.3V27.3846H3.43333V18.8269ZM89.2667 83.8654C89.2667 84.8067 88.4942 85.5769 87.55 85.5769H5.15C4.20583 85.5769 3.43333 84.8067 3.43333 83.8654V30.8077H10.3V73.5962C10.3 76.4202 12.6175 78.7308 15.45 78.7308H89.2667V83.8654ZM99.5667 73.5962C99.5667 74.5375 98.7942 75.3077 97.85 75.3077H15.45C14.5058 75.3077 13.7333 74.5375 13.7333 73.5962V17.1154H99.5667V73.5962ZM99.5667 13.6923H13.7333V5.13462C13.7333 4.19327 14.5058 3.42308 15.45 3.42308H97.85C98.7942 3.42308 99.5667 4.19327 99.5667 5.13462V13.6923Z" fill="black"/>
<path d="M90.9835 65.0384H89.2668V35.9423C89.2668 35.0009 88.4943 34.2307 87.5502 34.2307H80.6835C79.7393 34.2307 78.9668 35.0009 78.9668 35.9423V65.0384H75.5335V42.7884C75.5335 41.8471 74.761 41.0769 73.8168 41.0769H66.9502C66.006 41.0769 65.2335 41.8471 65.2335 42.7884V65.0384H61.8002V49.6346C61.8002 48.6932 61.0277 47.923 60.0835 47.923H53.2168C52.2727 47.923 51.5002 48.6932 51.5002 49.6346V65.0384H48.0668V53.0576C48.0668 52.1163 47.2943 51.3461 46.3502 51.3461H39.4835C38.5393 51.3461 37.7668 52.1163 37.7668 53.0576V65.0384H36.0502C35.106 65.0384 34.3335 65.8086 34.3335 66.7499C34.3335 67.6913 35.106 68.4615 36.0502 68.4615H90.9835C91.9276 68.4615 92.7001 67.6913 92.7001 66.7499C92.7001 65.8086 91.9276 65.0384 90.9835 65.0384ZM72.1002 65.0384H68.6668V44.4999H72.1002V65.0384Z" fill="black"/>
<path d="M18.8832 10.2693H20.5998C21.544 10.2693 22.3165 9.49908 22.3165 8.55773C22.3165 7.61638 21.544 6.84619 20.5998 6.84619H18.8832C17.939 6.84619 17.1665 7.61638 17.1665 8.55773C17.1665 9.49908 17.939 10.2693 18.8832 10.2693Z" fill="black"/>
<path d="M27.4667 10.2693H29.1833C30.1275 10.2693 30.9 9.49908 30.9 8.55773C30.9 7.61638 30.1275 6.84619 29.1833 6.84619H27.4667C26.5225 6.84619 25.75 7.61638 25.75 8.55773C25.75 9.49908 26.5225 10.2693 27.4667 10.2693Z" fill="black"/>
<path d="M36.0502 10.2693H37.7668C38.711 10.2693 39.4835 9.49908 39.4835 8.55773C39.4835 7.61638 38.711 6.84619 37.7668 6.84619H36.0502C35.106 6.84619 34.3335 7.61638 34.3335 8.55773C34.3335 9.49908 35.106 10.2693 36.0502 10.2693Z" fill="black"/>
<path d="M42.9169 47.9229C43.3675 47.9229 43.8181 47.7518 44.14 47.4309L51.5002 40.0926L55.4271 44.0078C56.0923 44.671 57.1867 44.671 57.8519 44.0078L66.9288 34.958L69.139 37.1616C69.8042 37.8249 70.8985 37.8249 71.5638 37.1616L82.3573 26.4003V29.096C82.3573 30.0374 83.1298 30.8076 84.074 30.8076C85.0181 30.8076 85.7906 30.0374 85.7906 29.096V22.2499C85.7906 21.5653 85.3615 20.9448 84.7392 20.6667C84.5246 20.5811 84.31 20.5383 84.074 20.5383H77.2073C76.2631 20.5383 75.4906 21.3085 75.4906 22.2499C75.4906 23.1912 76.2631 23.9614 77.2073 23.9614H79.9325L70.3835 33.5246L68.1733 31.321C67.5081 30.6578 66.4138 30.6578 65.7485 31.321L56.6502 40.3708L52.7233 36.4556C52.0581 35.7924 50.9638 35.7924 50.2985 36.4556L41.7152 45.0133C41.05 45.6765 41.05 46.7676 41.7152 47.4309C42.0156 47.7518 42.4663 47.9229 42.9169 47.9229Z" fill="black"/>
</svg>
