<svg width="105" height="107" viewBox="0 0 105 107" fill="none" xmlns="http://www.w3.org/2000/svg">
<path d="M31.5032 95.5051V99.0055H28.0029V95.5051H31.5032ZM21.0022 95.5051V99.0055H24.5025V95.5051H21.0022ZM0.218773 97.6272C0.0656318 96.9271 0 96.227 0 95.5051V64.0019H3.50036V95.5051C3.50036 99.3774 6.62881 102.506 10.5011 102.506H36.7538V90.2546H15.7516C14.789 90.2546 14.0014 89.467 14.0014 88.5044V67.5022H17.5018V86.7542H18.0925L27.5653 69.4712L23.518 65.0082L11.5074 51.7943C6.97884 52.1663 3.50036 55.951 3.50036 60.5015H0C0 54.4196 4.48484 49.2566 10.5011 48.3815V17.097L7.43827 9.43998C6.56318 7.14287 7.08823 4.56135 8.79466 2.81117C9.95415 1.65168 11.5293 0.995361 13.1482 0.995361H42.8575C46.2485 0.995361 49.0051 3.7519 49.0051 7.14287C49.0051 7.93045 48.8519 8.69615 48.5675 9.4181L46.161 15.4343L50.5365 16.3094C53.0523 16.8126 54.6713 19.2629 54.1681 21.7569C53.7305 23.9227 51.8272 25.476 49.6176 25.476C48.8738 25.476 48.1081 25.4541 47.3643 25.4323L50.624 33.5925C50.974 34.4894 50.5365 35.5177 49.6395 35.8677C49.4426 35.9552 49.2019 35.999 48.9832 35.999H43.7326V44.7499C43.7326 45.975 43.4045 47.1782 42.7919 48.2502H43.0107C48.4144 48.2502 53.4461 51.0286 56.3339 55.601L61.1469 63.258L58.1935 65.1176L53.3805 57.4606C52.5929 56.2135 51.5866 55.1197 50.4052 54.2227L32.5971 86.7542H43.4045L43.0107 86.426C40.9323 84.654 40.6917 81.5474 42.4637 79.4691C43.2295 78.5721 44.3233 77.9595 45.5047 77.7845V67.5022H49.0051V72.2714L56.5308 84.6102L59.703 87.148L63.9691 58.0294C64.3848 55.426 66.6162 53.5226 69.2634 53.5226H73.6826C74.7765 51.4881 77.0079 50.0223 79.305 50.0223H81.4928L81.6022 49.5847C82.2804 46.872 84.9931 44.7717 87.7278 44.7717C90.1343 44.6842 92.1689 46.5657 92.2564 48.9722C92.2783 49.3222 92.2345 49.6723 92.1689 50.0223H93.4815C94.8817 50.0004 96.2162 50.613 97.0912 51.7068C97.5069 52.2319 97.7913 52.8663 97.9007 53.5226H99.6509C101.204 53.5226 102.692 54.2008 103.72 55.3822C104.705 56.5198 105.164 58.0294 104.945 59.5389L102.889 73.6278C104.486 74.7217 105.295 76.6469 104.901 78.5502L102.692 89.5764C102.189 92.0266 100.045 93.7987 97.5507 93.7987H91.9063C89.2373 93.7987 87.0934 91.6547 87.0934 88.9857C87.0934 88.6794 87.1152 88.3512 87.1809 88.045L89.3905 77.0188C89.8936 74.5686 92.0376 72.7965 94.5316 72.7965H99.454L101.467 59.0357C101.532 58.5544 101.401 58.0512 101.073 57.6793C100.723 57.2637 100.198 57.0449 99.6509 57.0449H97.4851L96.4787 60.9828C96.2818 61.7485 95.5817 62.2954 94.7723 62.2954H73.5076C72.545 62.2954 71.7574 61.5078 71.7574 60.5452C71.7574 60.3921 71.7793 60.2608 71.8012 60.1077L72.5887 57.0449H69.2415C68.3445 57.023 67.5788 57.6793 67.4257 58.5544L61.2782 100.559C61.2126 101.04 61.3438 101.521 61.672 101.893C62.022 102.309 62.5252 102.528 63.0503 102.55H63.094H93.5253C94.4222 102.571 95.1879 101.915 95.3411 101.04L95.9318 97.0365L99.3884 97.5397L98.7977 101.543C98.382 104.147 96.1505 106.05 93.5034 106.05H10.5011C5.51307 106.006 1.22513 102.506 0.218773 97.6272ZM101.204 76.7344C100.964 76.4281 100.592 76.2531 100.198 76.2531H94.5535C93.7222 76.2531 93.0002 76.8438 92.8471 77.6533L90.6375 88.6794C90.4843 89.3795 90.9656 90.0795 91.6657 90.2327C91.7532 90.2546 91.8407 90.2546 91.9282 90.2546H97.5726C98.4039 90.2546 99.1258 89.6639 99.279 88.8544L101.489 77.8283C101.554 77.4345 101.467 77.0407 101.204 76.7344ZM75.7609 58.7513H93.4596L94.466 54.8134C94.5754 54.4852 94.5316 54.1133 94.3566 53.8289C94.1378 53.5883 93.8315 53.4789 93.5034 53.5008H89.9593C88.9967 53.5008 88.2091 52.7132 88.2091 51.7506C88.2091 51.5974 88.231 51.4662 88.2528 51.313L88.6904 49.5629C88.7998 49.2347 88.756 48.8628 88.581 48.5784C88.3622 48.3377 88.0559 48.2283 87.7278 48.2502C86.5683 48.2502 85.2775 49.2785 84.9931 50.438L84.5556 52.1881C84.3587 52.9538 83.6586 53.5008 82.8492 53.5008H79.305C78.1456 53.5008 76.8548 54.529 76.5704 55.6885L75.7609 58.7513ZM42.5731 14.9749L43.9733 11.4527L44.6515 9.72439H42.8794C41.4355 9.72439 40.2542 10.9058 40.2542 12.3497C40.2542 13.706 41.2605 14.8218 42.5731 14.9749ZM13.4326 14.9968H37.3445C37.0819 14.4499 36.9069 13.8592 36.8194 13.2466H17.5018V9.74626H37.3445C38.3508 7.60229 40.5167 6.2459 42.8794 6.2459H45.3516C44.9796 5.19579 43.9733 4.49572 42.8575 4.49572H13.1482C11.6825 4.49572 10.5011 5.67709 10.5011 7.14287C10.5011 7.49291 10.5667 7.82106 10.698 8.12735L13.4326 14.9968ZM14.0014 48.2502H36.7538C38.679 48.2502 40.2542 46.6751 40.2542 44.7499V41.2495H35.0036V37.7491H40.2542V34.2488C40.2542 33.2862 41.0417 32.4986 42.0043 32.4986H46.4235L43.4701 25.126C41.7199 24.9072 39.9697 24.6009 38.2414 24.2071C38.9634 26.0011 38.1102 28.0356 36.3162 28.7576C34.5223 29.4795 32.4877 28.6263 31.7658 26.8324C31.1532 25.3229 31.6564 23.6164 32.969 22.6757C30.3875 21.7788 27.8935 20.663 25.487 19.3504L24.415 22.5882C24.1744 23.3102 23.518 23.7915 22.7523 23.7915H21.0678C19.777 23.7915 18.6613 24.6665 18.3331 25.9136C18.0487 27.1824 18.6613 28.4951 19.7989 29.1076L20.0177 29.217C20.8928 29.6546 21.2428 30.7047 20.8053 31.5579C20.7178 31.7329 20.6084 31.886 20.4771 32.0173L14.0014 38.4711V48.2502ZM36.7538 51.7506H34.5223L33.3191 55.3822L33.7785 58.1825L37.3007 51.7506H36.7538ZM24.415 55.6447L21.8116 51.7506H16.211L23.6931 59.9764L24.415 55.6447ZM29.3593 66.2115L31.0438 63.1486L29.7749 55.5354C29.7312 55.2509 29.7531 54.9665 29.8406 54.704L30.8251 51.7506H26.0121L27.6966 54.2884C27.9373 54.6603 28.0466 55.0978 27.9591 55.5572L26.6684 63.3018L29.3593 66.2115ZM55.7432 88.745L49.0051 91.4359V102.506H58.0622C57.7778 101.696 57.6903 100.843 57.7997 100.012L59.0905 91.2609L55.7432 88.745ZM45.2859 83.757L49.5739 87.4324L52.8554 86.1198L47.1236 81.5474C46.9923 81.438 46.8392 81.3505 46.6861 81.3068C45.9422 81.0442 45.1109 81.4599 44.8484 82.2037C44.6734 82.7725 44.8484 83.3851 45.2859 83.757Z" fill="black"/>
</svg>
