<svg width="104" height="104" viewBox="0 0 104 104" fill="none" xmlns="http://www.w3.org/2000/svg">
<g clip-path="url(#clip0)">
<path d="M102.267 57.2H97.8683L89.0283 46.8867L96.5683 39.3467C97.24 38.675 97.24 37.57 96.5683 36.8983L91.3683 31.6983C90.6967 31.0267 89.5917 31.0267 88.92 31.6983L77.1333 43.485L76.2667 43.68V0H6.93333V3.46667H0V104H72.8V97.0667H76.2667V77.675C78.6283 78.5633 81.2933 77.5667 82.5067 75.335L85.28 79.04C85.605 79.4733 86.125 79.7333 86.6667 79.7333H93.275L101.638 83.07C102.18 83.2867 102.787 83.2217 103.263 82.8967C103.74 82.5717 104.022 82.03 104.022 81.4667V58.9333C104 57.98 103.22 57.2 102.267 57.2ZM90.1333 35.3817L92.885 38.1333L90.1333 40.885L87.3817 38.1333L90.1333 35.3817ZM65.1517 55.4667H62.79L63.895 49.985L72.5833 48.0567L65.1517 55.4667ZM69.3333 100.533H3.46667V6.93333H6.93333V97.0667H69.3333V100.533ZM72.8 93.6H10.4V3.46667H72.8V44.4383L62.0317 46.8433C61.36 46.995 60.84 47.515 60.71 48.1867L59.215 55.705C56.485 56.485 54.9033 59.345 55.6833 62.075C55.9867 63.1583 56.6583 64.1117 57.5683 64.7833L54.2533 68.0983C54.1667 68.2067 54.08 68.315 53.9933 68.4233L48.7933 77.09C48.49 77.61 48.4683 78.26 48.75 78.78L47.32 80.21C46.6267 80.8817 46.605 81.965 47.2767 82.6583C47.9483 83.3517 49.0317 83.3733 49.725 82.7017C49.7467 82.68 49.7467 82.68 49.7683 82.6583L51.22 81.2067C51.4583 81.3367 51.74 81.4233 52.0217 81.4233C52.3467 81.4233 52.65 81.3367 52.91 81.185L61.5767 75.985C61.685 75.8983 61.815 75.8117 61.9017 75.725L65.8667 71.76V72.7783C65.8667 75.66 68.185 77.9783 71.0667 77.9783C71.6517 77.9783 72.2367 77.87 72.8 77.6533V93.6ZM57.8717 74.1867L52.715 77.285L55.8133 72.1283L57.8717 74.1867ZM72.8 72.8C72.8 73.7533 72.02 74.5333 71.0667 74.5333C70.1133 74.5333 69.3333 73.7533 69.3333 72.8V68.315L71.7817 65.8667H72.8V72.8ZM79.7333 72.8C79.7333 73.7533 78.9533 74.5333 78 74.5333C77.0467 74.5333 76.2667 73.7533 76.2667 72.8V67.015L79.7333 71.63V72.8ZM100.533 78.91L94.25 76.3967C94.055 76.31 93.8167 76.2667 93.6 76.2667H87.5333L77.6533 63.0933C77.3283 62.66 76.8083 62.4 76.2667 62.4H60.6667C59.7133 62.4 58.9333 61.62 58.9333 60.6667C58.9333 59.7133 59.7133 58.9333 60.6667 58.9333H76.2667C76.7217 58.9333 77.1767 58.76 77.5017 58.435L86.58 49.3567L95.7667 60.06C96.0917 60.45 96.5683 60.6667 97.0883 60.6667H100.555V78.91H100.533Z" fill="black"/>
<path d="M65.8667 84.9333H69.3334V88.4H65.8667V84.9333Z" fill="black"/>
<path d="M58.9336 84.9333H62.4003V88.4H58.9336V84.9333Z" fill="black"/>
<path d="M69.3335 7.53613H13.5654V18.0869H69.3335V7.53613Z" fill="black"/>
<path d="M13.8667 20.8H45.0667V24.2667H13.8667V20.8Z" fill="black"/>
<path d="M13.5654 27.1304H54.2611V30.1449H13.5654V27.1304Z" fill="black"/>
<path d="M13.8667 46.8002H24.2667V36.4001H13.8667V46.8002ZM17.3334 39.8668H20.8V43.3335H17.3334V39.8668Z" fill="black"/>
<path d="M28.6377 36.1738H61.7971V39.1883H28.6377V36.1738Z" fill="black"/>
<path d="M13.8667 60.6666H24.2667V50.2666H13.8667V60.6666Z" fill="black"/>
<path d="M27.7334 57.2H50.2667V60.6666H27.7334V57.2Z" fill="black"/>
<path d="M13.8667 88.4H24.2667V78H13.8667V88.4Z" fill="black"/>
<path d="M27.7334 78H43.3334V81.4667H27.7334V78Z" fill="black"/>
<path d="M27.7334 84.9333H53.7334V88.4H27.7334V84.9333Z" fill="black"/>
<path d="M27.7334 64.1333H41.6001V67.6H27.7334V64.1333Z" fill="black"/>
<path d="M27.7334 71.0667H46.8001V74.5333H27.7334V71.0667Z" fill="black"/>
<path d="M16.8351 74.035L19.0667 71.7816L21.2984 74.0133L23.7467 71.565L21.5151 69.3333L23.7467 67.1017L21.2984 64.6533L19.0667 66.885L16.8351 64.6533L14.3867 67.1017L16.6184 69.3333L14.3867 71.565L16.8351 74.035Z" fill="black"/>
</g>
<defs>
<clipPath id="clip0">
<rect width="104" height="104" fill="white"/>
</clipPath>
</defs>
</svg>
