<svg width="100" height="100" viewBox="0 0 100 100" fill="none" xmlns="http://www.w3.org/2000/svg">
<g clip-path="url(#clip0)">
<path d="M93.3333 91.6668H90V10.0001H45V6.66675H93.3333V91.6668Z" fill="black"/>
<path d="M99.9998 85H96.6665V3.33333H51.6665V0H99.9998V85Z" fill="black"/>
<path d="M37.6457 13.3333L16.6665 34.3124V46.6666H19.9998V36.6666H39.9998V16.6666H83.3332V96.6666H19.9998V93.3333H16.6665V99.9999H86.6665V13.3333H37.6457Z" fill="black"/>
<path d="M60 91.6667V63.9584C61.3958 64.7292 63.1042 64.6876 64.4792 63.8542C65.8542 63.0209 66.6875 61.5417 66.6667 59.9584C66.6458 58.3334 65.7708 56.8126 64.3542 56.0209L33.3333 39.7917L2.22917 56.0626C0.854167 56.8751 0 58.3751 0 59.9792V60.0001C0 61.6251 0.854167 63.1251 2.29167 63.9376C2.97917 64.3334 3.77083 64.5417 4.5625 64.5417C5.3125 64.5417 6.02083 64.3542 6.66667 63.9792V91.6667H60ZM3.9375 61.0209C3.5625 60.8126 3.33333 60.4167 3.33333 59.9792V59.9584C3.33333 59.5626 3.52083 59.1876 3.85417 58.9584L33.3333 43.5417L62.75 58.9376C63.125 59.1667 63.3542 59.5626 63.3333 60.0001C63.3333 60.4376 63.1042 60.8334 62.7292 61.0417C62.3333 61.2709 61.8333 61.2501 61.4375 61.0001L33.3333 46.4584L5.14583 61.0209C4.77083 61.2501 4.3125 61.2501 3.9375 61.0209ZM10 88.3334V62.2709L33.3333 50.2084L56.6667 62.2501V88.3334H26.6667V65.0001H13.3333V88.3334H10ZM16.6667 88.3334V68.3334H23.3333V88.3334H16.6667Z" fill="black"/>
<path d="M33.3335 63.3332C36.1043 63.3332 38.3335 61.1041 38.3335 58.3333C38.3335 55.5624 36.1043 53.3333 33.3335 53.3333C30.5627 53.3333 28.3335 55.5624 28.3335 58.3333C28.3335 61.1041 30.5627 63.3332 33.3335 63.3332Z" fill="black"/>
<path d="M30 81.6666H53.3333V68.3333H30V81.6666Z" fill="black"/>
<path d="M46.6665 26.6667H49.9998V30.0001H46.6665V26.6667Z" fill="black"/>
<path d="M53.3335 26.6667H76.6668V30.0001H53.3335V26.6667Z" fill="black"/>
<path d="M46.6665 33.3333H49.9998V36.6666H46.6665V33.3333Z" fill="black"/>
<path d="M53.3335 33.3333H76.6668V36.6666H53.3335V33.3333Z" fill="black"/>
<path d="M46.6665 43.3333H73.3332V56.6667H69.9998V60H76.6665V40H46.6665V43.3333Z" fill="black"/>
<path d="M70 63.3333H76.6667V66.6666H70V63.3333Z" fill="black"/>
</g>
<defs>
<clipPath id="clip0">
<rect width="100" height="100" fill="white"/>
</clipPath>
</defs>
</svg>
